<?xml version="1.0" standalone="no"?>
<!DOCTYPE svg PUBLIC "-//W3C//DTD SVG 20010904//EN"
 "http://www.w3.org/TR/2001/REC-SVG-20010904/DTD/svg10.dtd">
<svg version="1.0" xmlns="http://www.w3.org/2000/svg"
 width="1068.000000pt" height="1068.000000pt" viewBox="0 0 1068.000000 1068.000000"
 preserveAspectRatio="xMidYMid meet">
<metadata>
Created by potrace 1.14, written by Peter Selinger 2001-2017
</metadata>
<g transform="translate(0.000000,1068.000000) scale(0.100000,-0.100000)"
fill="#000000" stroke="none">
<path d="M5049 10666 c-2 -2 -53 -7 -114 -11 -60 -4 -117 -8 -125 -10 -9 -2
-46 -6 -82 -9 -37 -4 -75 -9 -86 -11 -10 -2 -43 -6 -73 -10 -30 -3 -61 -8 -69
-10 -8 -2 -33 -7 -55 -10 -69 -9 -118 -19 -285 -57 -74 -16 -142 -31 -150 -33
-69 -14 -354 -103 -490 -152 -864 -315 -1625 -841 -2232 -1543 -37 -43 -174
-214 -236 -295 -64 -84 -242 -347 -242 -358 0 -3 102 46 227 108 126 62 258
127 295 144 38 17 98 45 135 62 236 109 648 277 908 371 287 104 763 253 1000
313 17 5 35 9 40 11 16 5 332 83 357 88 73 16 417 87 438 91 14 3 45 8 70 11
25 3 48 8 51 10 3 1 28 6 55 9 27 4 81 13 119 20 39 7 104 19 145 25 41 7 84
14 95 16 11 2 34 7 50 9 65 12 282 57 320 67 22 5 51 12 65 15 14 2 79 18 145
34 66 17 127 32 135 34 8 2 69 20 135 40 66 19 129 38 139 40 52 12 341 115
511 182 281 111 649 281 835 387 25 14 59 32 75 40 17 7 39 20 49 28 18 14 17
16 -15 27 -211 78 -415 139 -630 190 -170 40 -338 71 -489 91 -47 6 -98 12
-115 15 -16 2 -59 6 -95 10 -36 3 -92 8 -125 11 -67 7 -681 15 -686 10z"/>
<path d="M8635 9438 c-295 -240 -713 -458 -1150 -598 -119 -38 -445 -126 -505
-137 -14 -2 -41 -8 -60 -13 -19 -5 -51 -12 -70 -15 -19 -3 -42 -8 -50 -10 -8
-2 -28 -7 -45 -10 -83 -15 -204 -36 -234 -41 -18 -3 -42 -7 -51 -9 -10 -2 -40
-7 -67 -11 -26 -3 -55 -8 -65 -10 -9 -1 -38 -6 -65 -10 -26 -3 -56 -8 -67 -10
-10 -2 -44 -6 -75 -9 -31 -4 -63 -8 -71 -10 -8 -2 -42 -7 -75 -10 -33 -4 -67
-8 -75 -10 -8 -3 -40 -7 -70 -10 -30 -3 -62 -8 -70 -10 -8 -2 -49 -7 -90 -10
-41 -3 -82 -8 -90 -10 -8 -2 -62 -9 -120 -15 -58 -6 -116 -13 -130 -15 -29 -4
-101 -12 -180 -20 -30 -3 -71 -8 -90 -10 -65 -8 -135 -15 -195 -20 -33 -3 -71
-7 -85 -10 -14 -2 -50 -6 -80 -9 -126 -12 -187 -18 -225 -21 -22 -2 -67 -6
-100 -10 -33 -3 -80 -8 -105 -11 -172 -18 -222 -24 -250 -29 -14 -2 -47 -7
-75 -10 -75 -9 -145 -19 -235 -35 -30 -5 -73 -12 -95 -16 -208 -30 -872 -183
-1060 -244 -16 -6 -70 -22 -120 -36 -232 -67 -671 -218 -965 -332 -160 -63
-390 -155 -425 -172 -11 -5 -92 -40 -180 -78 -88 -38 -191 -84 -230 -102 -38
-18 -95 -44 -125 -58 -30 -14 -87 -40 -127 -58 -39 -18 -75 -39 -79 -46 -10
-15 -79 -222 -99 -293 -49 -179 -67 -251 -85 -335 -27 -121 -50 -237 -55 -275
-2 -16 -8 -59 -14 -95 -11 -72 -27 -204 -35 -295 -3 -33 -8 -89 -11 -124 -5
-50 -4 -63 7 -58 7 3 109 46 226 96 118 51 293 123 390 162 98 38 186 74 197
78 195 85 987 352 1325 447 30 9 66 20 80 25 26 9 162 47 192 54 10 2 59 15
110 29 100 27 363 95 388 101 8 2 47 11 85 20 39 9 81 19 95 21 14 3 41 9 60
14 19 5 46 11 60 14 14 3 99 21 190 41 90 19 176 38 190 40 14 3 36 7 50 10
14 3 40 8 59 11 18 3 43 8 55 10 11 2 35 6 51 9 17 3 41 8 55 10 59 12 78 16
135 25 33 6 74 12 90 15 52 9 89 14 130 20 22 4 51 8 65 11 14 2 43 7 65 9 22
3 67 10 100 15 33 5 84 12 114 15 30 4 63 9 75 11 11 2 38 6 61 9 43 7 42 6
190 30 149 24 156 25 210 35 28 5 67 12 89 15 21 3 41 7 45 9 3 3 27 7 51 11
59 9 143 28 315 71 77 20 148 38 158 40 133 31 413 118 625 196 851 310 1606
757 2252 1332 84 75 420 414 420 424 0 18 -359 343 -378 342 -4 -1 -29 -19
-57 -42z"/>
<path d="M9676 8208 c-36 -73 -73 -144 -81 -158 -146 -253 -243 -396 -399
-589 -105 -129 -278 -309 -381 -396 -33 -27 -69 -58 -80 -68 -42 -38 -204
-157 -305 -224 -260 -172 -556 -319 -880 -437 -90 -32 -344 -114 -379 -121 -9
-2 -79 -19 -156 -39 -121 -30 -532 -115 -635 -131 -19 -3 -46 -7 -60 -10 -14
-3 -38 -7 -55 -9 -16 -3 -86 -14 -155 -25 -69 -10 -150 -22 -180 -26 -30 -4
-62 -9 -70 -10 -8 -1 -44 -6 -80 -11 -36 -4 -67 -8 -70 -9 -3 -1 -39 -5 -80
-9 -41 -5 -82 -10 -90 -11 -8 -2 -44 -6 -80 -10 -36 -3 -76 -8 -90 -10 -14 -2
-54 -6 -90 -10 -36 -3 -81 -8 -100 -10 -19 -3 -64 -7 -100 -10 -112 -9 -254
-22 -330 -30 -19 -2 -75 -7 -125 -10 -49 -3 -107 -8 -127 -11 -20 -2 -67 -6
-105 -9 -101 -8 -169 -15 -303 -30 -19 -2 -60 -7 -90 -10 -59 -6 -190 -23
-230 -29 -14 -2 -47 -7 -75 -11 -81 -11 -116 -16 -185 -27 -36 -5 -78 -12 -95
-14 -62 -9 -101 -16 -340 -60 -104 -19 -201 -37 -215 -40 -14 -2 -70 -14 -125
-25 -55 -12 -111 -23 -125 -26 -14 -2 -43 -9 -65 -15 -22 -5 -47 -12 -55 -13
-125 -27 -172 -38 -265 -60 -60 -15 -117 -28 -125 -30 -73 -15 -574 -149 -880
-236 -231 -66 -311 -90 -540 -159 -52 -16 -147 -45 -210 -64 -200 -61 -404
-124 -424 -132 -16 -6 -18 -15 -12 -73 3 -36 8 -82 11 -101 3 -19 7 -57 10
-85 3 -27 8 -57 10 -65 2 -8 7 -35 11 -60 10 -70 13 -83 19 -110 5 -24 9 -44
20 -103 3 -15 15 -67 26 -115 12 -48 23 -96 25 -107 2 -11 22 -82 44 -158 22
-76 40 -140 40 -143 0 -6 32 -2 75 9 11 3 119 31 240 62 121 31 247 63 280 71
33 7 125 29 205 49 119 29 243 57 349 80 9 2 111 24 226 50 116 25 221 47 234
50 14 2 47 9 75 15 75 15 449 86 506 96 14 3 36 7 50 9 59 12 76 15 100 20 38
7 570 95 610 101 19 3 76 11 125 19 50 8 110 16 135 20 25 3 56 8 70 10 43 8
81 14 205 30 66 9 131 18 145 20 62 9 108 15 148 20 82 10 118 14 197 25 91
11 136 17 215 25 30 3 66 8 80 10 14 2 59 7 100 10 41 4 89 9 105 11 17 2 55
6 85 9 74 8 181 21 240 30 14 2 45 7 70 10 175 24 330 52 615 111 11 2 101 24
200 49 99 25 188 47 197 49 254 64 739 236 1038 369 149 66 435 209 528 264
41 24 76 43 78 43 10 0 253 152 384 241 314 213 589 441 874 725 208 207 385
410 552 635 130 173 290 419 355 544 17 33 38 68 47 78 8 9 13 17 10 17 -3 0
9 28 27 62 l33 62 -35 65 c-55 100 -181 310 -219 364 -19 26 -34 51 -34 56 0
5 -6 14 -14 20 -11 9 -26 -13 -80 -121z"/>
<path d="M10346 6943 c-21 -54 -42 -107 -46 -118 -5 -11 -37 -90 -71 -175 -34
-85 -73 -180 -86 -210 -14 -30 -45 -100 -70 -155 -47 -106 -184 -382 -223
-450 -110 -195 -216 -362 -347 -550 -41 -59 -220 -280 -278 -345 -77 -86 -272
-279 -350 -347 -299 -264 -697 -516 -1065 -678 -47 -20 -103 -45 -125 -55 -52
-23 -295 -113 -365 -134 -30 -10 -62 -20 -70 -22 -8 -3 -17 -6 -20 -6 -3 0
-16 -5 -30 -10 -54 -21 -176 -55 -390 -107 -202 -49 -503 -110 -625 -126 -22
-3 -51 -8 -65 -10 -42 -8 -81 -13 -170 -25 -47 -6 -96 -13 -110 -15 -14 -2
-52 -6 -85 -10 -32 -4 -66 -8 -75 -10 -8 -2 -49 -6 -90 -10 -41 -3 -86 -8
-100 -10 -28 -5 -133 -15 -200 -20 -25 -2 -72 -6 -105 -9 -98 -9 -219 -18
-460 -31 -49 -3 -121 -8 -160 -10 -38 -3 -108 -7 -155 -10 -47 -3 -107 -7
-135 -10 -27 -2 -86 -7 -130 -10 -77 -6 -111 -8 -240 -21 -33 -3 -85 -7 -115
-9 -30 -2 -70 -6 -90 -9 -19 -3 -66 -8 -105 -11 -38 -3 -87 -8 -107 -10 -21
-3 -55 -7 -75 -10 -21 -2 -67 -7 -103 -10 -36 -4 -76 -8 -90 -10 -14 -2 -54
-7 -90 -10 -36 -4 -72 -8 -80 -10 -8 -1 -46 -6 -83 -10 -37 -3 -76 -8 -85 -10
-9 -1 -46 -6 -82 -10 -36 -3 -76 -8 -90 -10 -14 -2 -49 -7 -79 -10 -30 -4 -61
-8 -70 -10 -9 -1 -43 -6 -76 -9 -33 -4 -71 -9 -85 -11 -26 -5 -35 -6 -225 -30
-66 -9 -136 -18 -155 -21 -19 -3 -46 -7 -60 -9 -14 -2 -47 -7 -75 -10 -27 -4
-61 -8 -75 -10 -14 -2 -61 -9 -106 -15 -44 -6 -89 -12 -100 -14 -10 -2 -48 -7
-84 -11 -36 -4 -67 -8 -70 -10 -3 -1 -30 -6 -61 -9 -31 -4 -67 -9 -79 -11 -12
-2 -122 -18 -244 -35 -121 -16 -232 -32 -246 -35 -14 -2 -43 -6 -65 -9 -83
-11 -119 -17 -123 -20 -3 -3 75 -147 113 -207 5 -9 18 -32 29 -50 54 -97 370
-549 405 -579 3 -3 39 -45 80 -93 l74 -88 71 6 c39 4 82 8 96 10 14 2 63 7
110 10 47 3 96 8 110 10 14 2 61 6 105 10 44 3 96 8 115 10 41 5 158 15 221
20 123 8 228 17 259 20 19 2 73 7 120 10 47 4 101 8 120 10 19 2 78 6 130 10
52 3 111 8 130 10 19 2 73 7 120 10 47 4 101 8 120 10 19 2 76 6 125 9 50 4
110 8 135 11 25 2 81 7 125 10 44 3 103 7 130 10 28 2 86 7 130 10 81 6 156
11 255 20 30 2 89 7 130 10 83 5 219 16 265 20 17 2 75 6 130 10 55 4 107 9
115 10 8 2 60 6 114 10 55 4 107 8 116 10 9 2 55 6 102 9 47 4 94 8 104 10 10
2 50 7 87 11 37 3 76 8 85 10 9 1 46 6 82 10 36 4 73 9 83 11 10 2 51 8 90 13
40 6 83 13 97 16 13 2 40 7 60 10 20 3 47 8 60 10 14 3 41 8 60 11 45 7 228
47 345 74 50 12 97 23 106 25 8 2 74 20 145 40 71 20 136 38 144 40 100 23
525 175 720 257 202 86 528 245 622 304 21 13 40 24 42 24 10 0 240 142 367
227 187 126 407 293 549 419 14 13 50 44 80 70 121 106 502 498 616 634 201
240 417 540 535 743 19 32 39 66 44 75 129 215 322 613 430 887 27 66 28 72
17 145 -14 94 -20 127 -38 215 -9 39 -18 84 -21 100 -18 101 -142 535 -153
535 -4 0 -24 -44 -44 -97z"/>
<path d="M10495 4308 c-356 -715 -746 -1317 -1154 -1778 -131 -148 -375 -388
-535 -525 -119 -102 -407 -311 -511 -371 -11 -7 -72 -42 -135 -78 -121 -70
-414 -217 -465 -232 -5 -2 -75 -30 -155 -62 -162 -66 -454 -167 -515 -178 -5
-1 -43 -12 -84 -24 -41 -12 -81 -23 -90 -25 -16 -3 -90 -21 -126 -31 -11 -3
-31 -7 -45 -10 -14 -3 -63 -14 -110 -24 -47 -10 -98 -21 -115 -24 -16 -3 -41
-8 -55 -11 -39 -8 -310 -53 -360 -60 -25 -3 -56 -8 -70 -10 -14 -2 -50 -6 -80
-10 -30 -4 -66 -8 -80 -10 -14 -2 -56 -7 -95 -10 -38 -4 -81 -8 -95 -10 -14
-2 -59 -7 -100 -10 -41 -3 -100 -7 -130 -10 -232 -18 -472 -29 -865 -40 -99
-3 -234 -7 -300 -9 -288 -11 -697 -21 -1195 -31 -195 -4 -356 -8 -357 -9 -2
-2 9 -9 25 -16 15 -8 38 -22 52 -31 88 -59 476 -239 690 -321 285 -109 696
-223 935 -261 41 -7 165 -27 195 -32 27 -5 73 -10 165 -20 33 -4 74 -9 90 -11
154 -19 667 -26 865 -11 130 9 204 15 250 21 73 9 206 27 230 31 14 3 42 7 64
10 21 4 48 9 60 11 11 2 57 11 101 19 44 9 98 20 120 26 40 11 58 15 105 24
58 11 347 98 490 148 238 84 399 153 645 277 491 249 924 562 1325 957 200
197 397 421 525 597 11 15 37 51 59 79 202 270 457 728 601 1076 143 349 272
786 321 1090 3 18 7 41 9 50 10 58 16 101 13 100 -1 0 -52 -100 -113 -221z"/>
</g>
</svg>
